# xmcd
#
# Track frame offsets: 
#        182
#        13650
#        28065
#        39762
#        54275
#        69197
#        82622
#        96020
#        107800
#        120472
#        134045
#        146047
#        159197
#        171810
#        183967
#        197115
#        209917
#        221827
#        233207
#        246562
#        257995
#        271947
#        283787
#        296257
#        310342
#
# Disc length: 4286 seconds
#
# Revision: 2
# Processed by: cddbd v1.5.2PL0 Copyright (c) Steve Scherf et al.
# Submitted via: ExactAudioCopy v1.0b6
#
DISCID=7010bc19
DTITLE=Charlie Parker - Bird The Savoy Recordings (Master Takes)
DYEAR=1900
DGENRE=Jazz
TTITLE0=Tiny's Tempo (1944)
TTITLE1=Red Cross (1944)
TTITLE2=Warming up a Riff (1945)
TTITLE3=Billie's Bounce (1945)
TTITLE4=Now's the Time (1945)
TTITLE5=Thriving on a Riff (1945)
TTITLE6=Koko (1945)
TTITLE7=Donna Lee (1947)
TTITLE8=Chasin' the Bird (1947)
TTITLE9=Cheryl (1947)
TTITLE10=Milestones (1947)
TTITLE11=Little Willie Leaps (1947)
TTITLE12=Half Nelson (1947)
TTITLE13=Another Hair-Do (1947)
TTITLE14=Bluebird (1947)
TTITLE15=Klaunstance (1947)
TTITLE16=Bird Gets the Worm (1947)
TTITLE17=Barbados (1948)
TTITLE18=Ah-Leu-Cha (1948)
TTITLE19=Constellation (1948)
TTITLE20=Parker's Mood (1948)
TTITLE21=Perhaps (1948)
TTITLE22=Marmaduke (1948)
TTITLE23=Steeplechase (1948)
TTITLE24=Merry-Go-Round (1948)
EXTD=
EXTT0=
EXTT1=
EXTT2=
EXTT3=
EXTT4=
EXTT5=
EXTT6=
EXTT7=
EXTT8=
EXTT9=
EXTT10=
EXTT11=
EXTT12=
EXTT13=
EXTT14=
EXTT15=
EXTT16=
EXTT17=
EXTT18=
EXTT19=
EXTT20=
EXTT21=
EXTT22=
EXTT23=
EXTT24=
PLAYORDER=
